<?xml version="1.0" encoding="utf-8"?>
<!-- Generator: Adobe Illustrator 24.0.1, SVG Export Plug-In . SVG Version: 6.00 Build 0)  -->
<svg version="1.1" id="Capa_1" xmlns="http://www.w3.org/2000/svg" xmlns:xlink="http://www.w3.org/1999/xlink" x="0px" y="0px"
	 viewBox="0 0 800 705.4" style="enable-background:new 0 0 800 705.4;" xml:space="preserve">
<style type="text/css">
	.st0{fill:#3A4C3E;}
	.st1{opacity:0.2;}
</style>
<g>
	<g>
		<path class="st0" d="M659.45,11.81h-6.51l-1.35,3.06h-1.8l5.55-12.25h1.73l5.56,12.25h-1.84L659.45,11.81z M658.84,10.41l-2.64-6
			l-2.64,6H658.84z"/>
		<path class="st0" d="M671.5,2.62v1.19l-4.95,11.06h-1.85l4.85-10.72h-5.6v2.19h-1.68V2.62H671.5z"/>
		<path class="st0" d="M651.65,23.62h5.16c1.29,0,2.44,0.26,3.45,0.77c1,0.51,1.78,1.23,2.33,2.16c0.55,0.93,0.83,1.99,0.83,3.19
			s-0.28,2.27-0.83,3.19c-0.55,0.93-1.33,1.65-2.33,2.16s-2.15,0.77-3.45,0.77h-5.16V23.62z M656.7,34.34
			c0.99,0,1.86-0.19,2.62-0.58c0.75-0.39,1.33-0.92,1.74-1.62c0.41-0.69,0.61-1.5,0.61-2.41s-0.2-1.71-0.61-2.41
			c-0.41-0.69-0.99-1.23-1.74-1.62c-0.75-0.38-1.62-0.58-2.62-0.58h-3.31v9.2H656.7z"/>
		<path class="st0" d="M665.88,24.49c-0.22-0.21-0.32-0.47-0.32-0.77s0.11-0.56,0.32-0.78c0.22-0.22,0.49-0.32,0.81-0.32
			s0.6,0.1,0.81,0.31s0.32,0.46,0.32,0.76c0,0.31-0.11,0.58-0.32,0.8c-0.22,0.22-0.49,0.32-0.81,0.32S666.09,24.7,665.88,24.49z
			 M665.85,26.59h1.68v9.27h-1.68V26.59z"/>
		<path class="st0" d="M673.64,26.92c0.57-0.28,1.27-0.42,2.08-0.42v1.63c-0.09-0.01-0.22-0.02-0.38-0.02
			c-0.91,0-1.62,0.27-2.14,0.81s-0.78,1.31-0.78,2.32v4.62h-1.68v-9.27h1.61v1.56C672.63,27.61,673.06,27.2,673.64,26.92z"/>
		<path class="st0" d="M686.04,31.79h-7.52c0.11,0.82,0.46,1.47,1.08,1.97s1.37,0.74,2.28,0.74c1.11,0,2-0.37,2.68-1.12l0.93,1.08
			c-0.42,0.49-0.94,0.86-1.57,1.12s-1.32,0.38-2.09,0.38c-0.98,0-1.85-0.2-2.61-0.6c-0.76-0.4-1.34-0.96-1.76-1.69
			c-0.41-0.72-0.62-1.54-0.62-2.45c0-0.9,0.2-1.71,0.6-2.43s0.96-1.29,1.66-1.69c0.71-0.4,1.5-0.6,2.39-0.6
			c0.89,0,1.68,0.2,2.37,0.6c0.69,0.4,1.24,0.96,1.63,1.69s0.59,1.55,0.59,2.48C686.07,31.41,686.06,31.58,686.04,31.79z
			 M679.47,28.66c-0.54,0.49-0.86,1.13-0.95,1.92h5.95c-0.09-0.78-0.41-1.42-0.95-1.92c-0.54-0.5-1.22-0.74-2.02-0.74
			S680.01,28.17,679.47,28.66z"/>
		<path class="st0" d="M689.92,35.36c-0.74-0.41-1.32-0.97-1.74-1.69c-0.42-0.72-0.63-1.53-0.63-2.44s0.21-1.72,0.63-2.44
			s1-1.28,1.74-1.68c0.74-0.4,1.58-0.6,2.53-0.6c0.84,0,1.59,0.17,2.25,0.51c0.66,0.34,1.17,0.83,1.53,1.47l-1.28,0.82
			c-0.29-0.44-0.65-0.78-1.08-1c-0.43-0.22-0.91-0.33-1.43-0.33c-0.61,0-1.15,0.13-1.64,0.4c-0.48,0.27-0.86,0.65-1.14,1.15
			c-0.27,0.5-0.41,1.06-0.41,1.71c0,0.65,0.14,1.23,0.41,1.72s0.65,0.88,1.14,1.15c0.48,0.27,1.03,0.4,1.64,0.4
			c0.52,0,1-0.11,1.43-0.33c0.43-0.22,0.79-0.55,1.08-1l1.28,0.8c-0.36,0.64-0.87,1.13-1.53,1.48c-0.66,0.34-1.41,0.52-2.25,0.52
			C691.5,35.97,690.66,35.77,689.92,35.36z"/>
		<path class="st0" d="M699.77,35.36c-0.74-0.41-1.32-0.97-1.74-1.69c-0.42-0.72-0.63-1.53-0.63-2.44s0.21-1.72,0.63-2.44
			s1-1.28,1.74-1.68c0.74-0.4,1.58-0.6,2.53-0.6c0.84,0,1.59,0.17,2.25,0.51c0.66,0.34,1.17,0.83,1.53,1.47l-1.28,0.82
			c-0.29-0.44-0.65-0.78-1.08-1c-0.43-0.22-0.91-0.33-1.43-0.33c-0.61,0-1.15,0.13-1.64,0.4c-0.48,0.27-0.86,0.65-1.14,1.15
			c-0.27,0.5-0.41,1.06-0.41,1.71c0,0.65,0.14,1.23,0.41,1.72s0.65,0.88,1.14,1.15c0.48,0.27,1.03,0.4,1.64,0.4
			c0.52,0,1-0.11,1.43-0.33c0.43-0.22,0.79-0.55,1.08-1l1.28,0.8c-0.36,0.64-0.87,1.13-1.53,1.48c-0.66,0.34-1.41,0.52-2.25,0.52
			C701.35,35.97,700.51,35.77,699.77,35.36z"/>
		<path class="st0" d="M708.27,24.49c-0.22-0.21-0.32-0.47-0.32-0.77s0.11-0.56,0.32-0.78c0.22-0.22,0.49-0.32,0.81-0.32
			s0.6,0.1,0.81,0.31s0.32,0.46,0.32,0.76c0,0.31-0.11,0.58-0.32,0.8c-0.22,0.22-0.49,0.32-0.81,0.32S708.48,24.7,708.27,24.49z
			 M708.24,26.59h1.68v9.27h-1.68V26.59z"/>
		<path class="st0" d="M714.61,35.36c-0.73-0.41-1.31-0.97-1.72-1.69c-0.41-0.72-0.62-1.53-0.62-2.44s0.21-1.72,0.62-2.44
			s0.99-1.28,1.72-1.68s1.56-0.6,2.48-0.6c0.92,0,1.75,0.2,2.48,0.6c0.73,0.4,1.3,0.96,1.71,1.68s0.62,1.53,0.62,2.44
			s-0.21,1.72-0.62,2.44c-0.41,0.72-0.99,1.28-1.71,1.69c-0.73,0.41-1.55,0.61-2.48,0.61C716.17,35.97,715.34,35.77,714.61,35.36z
			 M718.69,34.09c0.47-0.27,0.84-0.66,1.11-1.15c0.27-0.5,0.4-1.06,0.4-1.71c0-0.64-0.13-1.21-0.4-1.71
			c-0.27-0.5-0.64-0.88-1.11-1.15c-0.47-0.27-1.01-0.4-1.6-0.4s-1.13,0.13-1.6,0.4c-0.47,0.27-0.85,0.65-1.12,1.15
			c-0.27,0.5-0.41,1.06-0.41,1.71c0,0.64,0.14,1.21,0.41,1.71s0.65,0.88,1.12,1.15c0.47,0.27,1.01,0.41,1.6,0.41
			S718.22,34.36,718.69,34.09z M718.14,22.97h2.13l-2.94,2.27h-1.58L718.14,22.97z"/>
		<path class="st0" d="M731.99,27.53c0.69,0.68,1.04,1.68,1.04,3v5.34h-1.68v-5.14c0-0.9-0.22-1.57-0.65-2.03
			c-0.43-0.45-1.05-0.68-1.85-0.68c-0.91,0-1.63,0.27-2.15,0.8c-0.52,0.53-0.79,1.29-0.79,2.28v4.78h-1.68v-9.27h1.61v1.4
			c0.34-0.48,0.8-0.85,1.37-1.1c0.58-0.26,1.23-0.38,1.97-0.38C730.36,26.51,731.3,26.85,731.99,27.53z"/>
		<path class="st0" d="M659.45,53.8h-6.51l-1.35,3.06h-1.8l5.55-12.25h1.73l5.56,12.25h-1.84L659.45,53.8z M658.84,52.4l-2.64-6
			l-2.64,6H658.84z"/>
		<path class="st0" d="M664.21,43.88h1.68v12.98h-1.68V43.88z"/>
		<path class="st0" d="M669.11,45.49c-0.22-0.21-0.32-0.47-0.32-0.77s0.11-0.56,0.32-0.78c0.22-0.22,0.49-0.32,0.81-0.32
			s0.6,0.1,0.81,0.31s0.32,0.46,0.32,0.76c0,0.31-0.11,0.58-0.32,0.8c-0.22,0.22-0.49,0.32-0.81,0.32S669.33,45.7,669.11,45.49z
			 M669.09,47.59h1.68v9.27h-1.68V47.59z"/>
		<path class="st0" d="M675.48,56.35c-0.74-0.41-1.32-0.97-1.74-1.69c-0.42-0.72-0.63-1.53-0.63-2.44s0.21-1.72,0.63-2.44
			s1-1.28,1.74-1.68c0.74-0.4,1.58-0.6,2.53-0.6c0.84,0,1.59,0.17,2.25,0.51c0.66,0.34,1.17,0.83,1.53,1.47l-1.28,0.82
			c-0.29-0.44-0.65-0.78-1.08-1c-0.43-0.22-0.91-0.33-1.43-0.33c-0.61,0-1.15,0.13-1.64,0.4c-0.48,0.27-0.86,0.65-1.14,1.15
			c-0.27,0.5-0.41,1.06-0.41,1.71c0,0.65,0.14,1.23,0.41,1.72s0.65,0.88,1.14,1.15c0.48,0.27,1.03,0.4,1.64,0.4
			c0.52,0,1-0.11,1.43-0.33c0.43-0.22,0.79-0.55,1.08-1l1.28,0.8c-0.36,0.64-0.87,1.13-1.53,1.48c-0.66,0.34-1.41,0.52-2.25,0.52
			C677.06,56.96,676.22,56.76,675.48,56.35z"/>
		<path class="st0" d="M690.28,48.44c0.68,0.63,1.02,1.57,1.02,2.82v5.6h-1.59v-1.22c-0.28,0.43-0.68,0.76-1.2,0.99
			c-0.52,0.23-1.13,0.34-1.85,0.34c-1.04,0-1.87-0.25-2.49-0.75c-0.62-0.5-0.94-1.16-0.94-1.98s0.3-1.47,0.89-1.97
			s1.54-0.74,2.83-0.74h2.66v-0.33c0-0.72-0.21-1.28-0.63-1.66s-1.04-0.58-1.85-0.58c-0.55,0-1.08,0.09-1.61,0.27
			c-0.53,0.18-0.97,0.42-1.33,0.73l-0.7-1.26c0.48-0.38,1.05-0.68,1.71-0.88s1.37-0.31,2.12-0.31
			C688.62,47.5,689.6,47.81,690.28,48.44z M688.61,55.24c0.47-0.29,0.81-0.69,1.01-1.22v-1.29h-2.59c-1.42,0-2.13,0.48-2.13,1.43
			c0,0.47,0.18,0.83,0.54,1.1c0.36,0.27,0.86,0.4,1.5,0.4C687.59,55.67,688.14,55.53,688.61,55.24z"/>
		<path class="st0" d="M702.18,48.52c0.69,0.68,1.04,1.68,1.04,3v5.34h-1.68v-5.14c0-0.9-0.22-1.57-0.65-2.03
			c-0.43-0.45-1.05-0.68-1.85-0.68c-0.91,0-1.63,0.27-2.15,0.8c-0.52,0.53-0.79,1.29-0.79,2.28v4.78h-1.68v-9.27h1.61v1.4
			c0.34-0.48,0.8-0.85,1.37-1.1c0.58-0.26,1.23-0.38,1.97-0.38C700.55,47.5,701.48,47.84,702.18,48.52z"/>
		<path class="st0" d="M711.55,56.32c-0.25,0.21-0.55,0.37-0.91,0.48c-0.36,0.11-0.73,0.17-1.12,0.17c-0.93,0-1.66-0.25-2.17-0.75
			c-0.51-0.5-0.77-1.22-0.77-2.15v-5.09H705v-1.38h1.57v-2.03h1.68v2.03h2.66v1.38h-2.66v5.02c0,0.5,0.12,0.89,0.38,1.15
			c0.25,0.27,0.61,0.4,1.08,0.4c0.51,0,0.95-0.15,1.31-0.44L711.55,56.32z"/>
		<path class="st0" d="M721.61,52.78h-7.52c0.11,0.82,0.46,1.47,1.08,1.97s1.37,0.74,2.28,0.74c1.11,0,2-0.37,2.68-1.12l0.93,1.08
			c-0.42,0.49-0.94,0.86-1.57,1.12s-1.32,0.38-2.09,0.38c-0.98,0-1.85-0.2-2.61-0.6c-0.76-0.4-1.34-0.96-1.76-1.69
			c-0.41-0.72-0.62-1.54-0.62-2.45c0-0.9,0.2-1.71,0.6-2.43s0.96-1.29,1.66-1.69c0.71-0.4,1.5-0.6,2.39-0.6
			c0.89,0,1.68,0.2,2.37,0.6c0.69,0.4,1.24,0.96,1.63,1.69s0.59,1.55,0.59,2.48C721.64,52.4,721.63,52.57,721.61,52.78z
			 M715.04,49.65c-0.54,0.49-0.86,1.13-0.95,1.92h5.95c-0.09-0.78-0.41-1.42-0.95-1.92c-0.54-0.5-1.22-0.74-2.02-0.74
			S715.58,49.16,715.04,49.65z"/>
	</g>
	<g class="st1">
		<path class="st0" d="M4.23,657.51l-0.89-8.7c7.01-0.72,14.29-1.41,21.83-2.12c49.41-4.68,110.91-10.51,174.82-31.96
			c74.75-25.09,137.92-66.25,193.12-125.85c61.35-66.23,90.12-126.8,115.5-180.25c22.68-47.76,42.27-89.01,79.5-125.24
			c62.43-60.77,110.27-94.49,133.23-109.19l4.72,7.37c-22.68,14.52-69.98,47.86-131.85,108.09c-36.1,35.14-55.38,75.73-77.7,122.73
			c-25.65,54.01-54.73,115.22-116.98,182.44c-56.22,60.7-120.58,102.63-196.76,128.2C137.9,644.8,75.85,650.68,25.99,655.4
			C18.48,656.11,11.22,656.8,4.23,657.51z"/>
	</g>
	<g>
		<path class="st0" d="M161.03,551.67c-2.24,0-4.36-0.83-6.01-2.36c-1.74-1.61-2.74-3.8-2.83-6.16c-0.09-2.37,0.75-4.63,2.35-6.36
			c1.61-1.74,3.8-2.74,6.16-2.83c2.38-0.12,4.63,0.74,6.36,2.35c1.74,1.61,2.74,3.8,2.83,6.16s-0.75,4.63-2.35,6.36
			c-1.61,1.74-3.8,2.74-6.16,2.83C161.26,551.67,161.15,551.67,161.03,551.67z M161.04,538.32c-0.06,0-0.12,0-0.18,0
			c-1.2,0.05-2.31,0.56-3.12,1.44c-0.82,0.88-1.24,2.02-1.19,3.22c0.05,1.2,0.56,2.31,1.44,3.12c1.82,1.68,4.66,1.57,6.34-0.24
			c0.82-0.88,1.24-2.02,1.19-3.22c-0.05-1.2-0.56-2.31-1.44-3.12C163.25,538.74,162.18,538.32,161.04,538.32z"/>
	</g>
	<g>
		<path class="st0" d="M317.95,267.65c-2.24,0-4.36-0.83-6.02-2.36c-3.58-3.32-3.8-8.94-0.48-12.53c3.32-3.58,8.94-3.8,12.53-0.48
			c1.74,1.61,2.74,3.8,2.83,6.16c0.09,2.37-0.75,4.63-2.35,6.36c-1.61,1.74-3.8,2.74-6.16,2.83
			C318.18,267.65,318.06,267.65,317.95,267.65z M317.96,254.3c-1.21,0-2.41,0.48-3.29,1.44c-1.68,1.82-1.57,4.66,0.24,6.34
			c0.88,0.82,2.01,1.24,3.22,1.19c1.2-0.05,2.31-0.56,3.12-1.44c0.82-0.88,1.24-2.02,1.19-3.22c-0.05-1.2-0.56-2.31-1.44-3.12
			C320.14,254.69,319.05,254.3,317.96,254.3z"/>
	</g>
	<g>
		<path class="st0" d="M402.68,234.46c-2.24,0-4.36-0.83-6.02-2.36c-1.74-1.61-2.74-3.8-2.83-6.16c-0.09-2.37,0.75-4.63,2.35-6.36
			c1.61-1.74,3.8-2.74,6.16-2.83c2.34-0.1,4.62,0.75,6.36,2.35c1.74,1.61,2.74,3.8,2.83,6.16c0.09,2.37-0.75,4.62-2.35,6.36
			c-1.61,1.74-3.8,2.74-6.16,2.83C402.91,234.46,402.8,234.46,402.68,234.46z M402.69,221.11c-0.06,0-0.12,0-0.18,0
			c-1.2,0.05-2.31,0.56-3.12,1.44c-0.82,0.88-1.24,2.02-1.19,3.22c0.05,1.2,0.56,2.31,1.44,3.12c0.88,0.81,2.02,1.23,3.22,1.19
			c1.2-0.05,2.31-0.56,3.12-1.44v0c0.82-0.88,1.24-2.02,1.19-3.22c-0.05-1.2-0.56-2.31-1.44-3.12
			C404.91,221.53,403.83,221.11,402.69,221.11z"/>
	</g>
	<g>
		<path class="st0" d="M424.74,295.59c-2.24,0-4.36-0.83-6.02-2.36c-1.74-1.61-2.74-3.8-2.83-6.16c-0.09-2.37,0.75-4.63,2.35-6.36
			c1.61-1.74,3.8-2.74,6.16-2.83c2.36-0.09,4.62,0.75,6.36,2.35c1.74,1.61,2.74,3.8,2.83,6.16c0.09,2.37-0.75,4.63-2.35,6.36
			c-1.61,1.74-3.8,2.74-6.16,2.83C424.97,295.59,424.86,295.59,424.74,295.59z M424.75,282.24c-0.06,0-0.12,0-0.18,0
			c-1.2,0.05-2.31,0.56-3.12,1.44c-0.82,0.88-1.24,2.02-1.19,3.22c0.05,1.2,0.56,2.31,1.44,3.12c0.88,0.82,2.01,1.25,3.22,1.19
			c1.2-0.05,2.31-0.56,3.12-1.44c0.82-0.88,1.24-2.02,1.19-3.22c-0.05-1.2-0.56-2.31-1.44-3.12
			C426.96,282.66,425.89,282.24,424.75,282.24z"/>
	</g>
	<g>
		<path class="st0" d="M471.05,200.09c-2.24,0-4.36-0.83-6.01-2.36c-1.74-1.61-2.74-3.8-2.83-6.16c-0.09-2.37,0.75-4.62,2.35-6.36
			s3.8-2.74,6.16-2.83c2.36-0.08,4.62,0.75,6.36,2.35c1.74,1.61,2.74,3.8,2.83,6.16c0.09,2.37-0.75,4.62-2.35,6.36
			c-1.61,1.74-3.8,2.74-6.16,2.83C471.29,200.09,471.17,200.09,471.05,200.09z M471.07,186.73c-0.06,0-0.12,0-0.18,0
			c-1.2,0.05-2.31,0.56-3.12,1.44s-1.24,2.02-1.19,3.22c0.05,1.2,0.56,2.31,1.44,3.12c0.88,0.82,2.02,1.24,3.22,1.19
			c1.2-0.05,2.31-0.56,3.12-1.44c0.82-0.88,1.24-2.02,1.19-3.22c-0.05-1.2-0.56-2.31-1.44-3.12
			C473.28,187.16,472.2,186.73,471.07,186.73z"/>
	</g>
	<g>
		
			<rect x="180.09" y="544.05" transform="matrix(0.8872 -0.4614 0.4614 0.8872 -247.9255 149.7391)" class="st0" width="4.37" height="75.73"/>
	</g>
	<g>
		<path class="st0" d="M166.48,539.9l-1.82-3.98c1.33-0.61,133.72-61.1,177.27-83.69c9.09-4.72,30.69-55.57,26.87-63.28
			c-12.88-26.03-47.63-102.44-47.98-103.21l-0.14-0.3l-2.59-20.12l4.34-0.56l2.51,19.46c2.4,5.28,35.34,77.65,47.78,102.78
			c3.64,7.35-5.6,29.95-8.51,36.7c-5.63,13.02-14.31,29.31-20.27,32.4C300.3,478.75,167.82,539.29,166.48,539.9z"/>
	</g>
	<g>
		
			<rect x="321.8" y="240.88" transform="matrix(0.9354 -0.3535 0.3535 0.9354 -62.6711 142.9883)" class="st0" width="76.66" height="4.37"/>
	</g>
	<g>
		
			<rect x="412.08" y="230.14" transform="matrix(0.9334 -0.359 0.359 0.9334 -64.2903 165.7676)" class="st0" width="4.37" height="51.76"/>
	</g>
	<g>
		
			<rect x="464.4" y="128.2" transform="matrix(0.9073 -0.4206 0.4206 0.9073 1.108 265.8074)" class="st0" width="277.69" height="4.37"/>
	</g>
	<g>
		
			<rect x="405.34" y="206.34" transform="matrix(0.891 -0.4541 0.4541 0.891 -47.0433 221.1518)" class="st0" width="63.19" height="4.37"/>
	</g>
	<g>
		<path class="st0" d="M3.79,657.78l-0.89-8.7c7.01-0.72,14.29-1.41,21.82-2.12c49.98-4.73,112.18-10.63,176.82-32.63l2.82,8.28
			c-65.61,22.33-128.38,28.28-178.81,33.06C18.03,656.38,10.77,657.06,3.79,657.78z"/>
	</g>
	<g>
		<path class="st0" d="M725.68,81.84l-5.12-7.09c9.72-7.03,62.08-32.81,64.31-33.91l3.86,7.85
			C770.12,57.85,732.99,76.56,725.68,81.84z"/>
	</g>
	<g>
		<path class="st0" d="M461.97,268.53c0-6.91-5.6-12.52-12.52-12.52s-12.52,5.6-12.52,12.52c0,2.3,0.63,4.46,1.72,6.31h-0.01
			l10.81,17.6l10.84-17.65h-0.01c0.54-0.93,0.97-1.93,1.25-2.99C461.82,270.76,461.97,269.66,461.97,268.53z M449.45,262.28
			c3.46,0,6.26,2.8,6.26,6.26c0,0.57-0.07,1.11-0.22,1.63c-0.72,2.66-3.15,4.63-6.04,4.63c-3.46,0-6.26-2.8-6.26-6.26
			C443.19,265.08,445.99,262.28,449.45,262.28z"/>
	</g>
	<g>
		<path class="st0" d="M771.63,112.5c0.47,0.47,0.71,1.07,0.71,1.79c0,0.52-0.13,1-0.39,1.42c-0.26,0.42-0.65,0.76-1.17,1.01
			c-0.52,0.25-1.16,0.37-1.91,0.37c-0.66,0-1.29-0.1-1.89-0.3s-1.1-0.47-1.48-0.82l0.6-1.04c0.32,0.3,0.72,0.54,1.21,0.72
			c0.49,0.18,1.01,0.27,1.56,0.27c0.68,0,1.21-0.14,1.59-0.43c0.38-0.29,0.57-0.69,0.57-1.19c0-0.51-0.19-0.9-0.56-1.18
			s-0.94-0.42-1.71-0.42h-0.74v-0.92l2.31-2.83h-4.42v-1.14h6.06v0.89l-2.4,2.97C770.47,111.75,771.16,112.03,771.63,112.5z"/>
		<path class="st0" d="M779.15,111.76c0.48,0.23,0.85,0.55,1.12,0.98c0.27,0.42,0.41,0.91,0.41,1.46c0,0.58-0.14,1.08-0.43,1.52
			c-0.28,0.44-0.67,0.78-1.17,1.02s-1.05,0.36-1.66,0.36c-1.23,0-2.18-0.4-2.85-1.19s-1-1.92-1-3.39c0-1.02,0.18-1.9,0.54-2.62
			c0.36-0.72,0.87-1.27,1.52-1.64c0.65-0.37,1.41-0.56,2.28-0.56c0.45,0,0.87,0.05,1.26,0.14s0.73,0.23,1.02,0.4l-0.5,1.02
			c-0.44-0.29-1.02-0.43-1.76-0.43c-0.95,0-1.7,0.29-2.24,0.89c-0.54,0.59-0.81,1.45-0.81,2.58c0,0.14,0,0.25,0.01,0.33
			c0.26-0.39,0.62-0.69,1.08-0.9c0.46-0.21,0.98-0.31,1.56-0.31C778.13,111.42,778.67,111.53,779.15,111.76z M778.84,115.55
			c0.38-0.32,0.56-0.76,0.56-1.3s-0.19-0.97-0.57-1.29c-0.38-0.32-0.89-0.48-1.53-0.48c-0.41,0-0.78,0.08-1.1,0.24
			c-0.32,0.16-0.57,0.37-0.75,0.64c-0.18,0.27-0.27,0.57-0.27,0.91c0,0.32,0.08,0.62,0.26,0.89c0.17,0.27,0.42,0.48,0.75,0.64
			c0.33,0.16,0.72,0.24,1.17,0.24C777.97,116.04,778.46,115.87,778.84,115.55z"/>
		<path class="st0" d="M787.23,112.5c0.47,0.47,0.71,1.07,0.71,1.79c0,0.52-0.13,1-0.39,1.42c-0.26,0.42-0.65,0.76-1.17,1.01
			c-0.52,0.25-1.16,0.37-1.91,0.37c-0.66,0-1.29-0.1-1.89-0.3s-1.1-0.47-1.48-0.82l0.6-1.04c0.32,0.3,0.72,0.54,1.21,0.72
			c0.49,0.18,1.01,0.27,1.56,0.27c0.68,0,1.21-0.14,1.59-0.43c0.38-0.29,0.57-0.69,0.57-1.19c0-0.51-0.19-0.9-0.56-1.18
			s-0.94-0.42-1.71-0.42h-0.74v-0.92l2.31-2.83h-4.42v-1.14h6.06v0.89l-2.4,2.97C786.08,111.75,786.76,112.03,787.23,112.5z"/>
	</g>
	<g>
		<path class="st0" d="M793.19,175.93h-76.47V124h76.47V175.93z M718.18,174.47h73.55v-49.01h-73.55V174.47z"/>
	</g>
	<g>
		<path class="st0" d="M793.19,122.93h-76.47v-20.45h76.47V122.93z M718.18,121.47h73.55v-17.53h-73.55V121.47z"/>
	</g>
	<g>
		<path class="st0" d="M739.84,137.79h-4.34l-0.9,2.04h-1.2l3.7-8.16h1.15l3.71,8.16h-1.22L739.84,137.79z M739.43,136.86l-1.76-4
			l-1.76,4H739.43z"/>
		<path class="st0" d="M743.01,131.18h1.12v8.65h-1.12V131.18z"/>
		<path class="st0" d="M752.18,133.65v5.34c0,1.08-0.27,1.88-0.8,2.4c-0.54,0.52-1.34,0.78-2.4,0.78c-0.58,0-1.14-0.08-1.67-0.24
			c-0.53-0.16-0.96-0.39-1.28-0.68l0.54-0.86c0.29,0.25,0.64,0.45,1.07,0.59c0.42,0.14,0.86,0.22,1.31,0.22
			c0.72,0,1.26-0.17,1.6-0.51c0.35-0.34,0.52-0.86,0.52-1.56v-0.49c-0.26,0.32-0.59,0.56-0.97,0.72c-0.38,0.16-0.8,0.24-1.25,0.24
			c-0.59,0-1.12-0.13-1.6-0.38s-0.85-0.61-1.12-1.06c-0.27-0.45-0.41-0.97-0.41-1.56s0.14-1.1,0.41-1.56
			c0.27-0.46,0.65-0.81,1.12-1.06s1.01-0.37,1.6-0.37c0.47,0,0.9,0.08,1.3,0.26s0.73,0.42,0.99,0.76v-0.96H752.18z M750.05,138.34
			c0.32-0.17,0.58-0.41,0.76-0.72c0.18-0.31,0.27-0.66,0.27-1.04c0-0.6-0.2-1.08-0.59-1.45s-0.91-0.55-1.53-0.55
			c-0.63,0-1.14,0.18-1.54,0.55s-0.59,0.85-0.59,1.45c0,0.39,0.09,0.74,0.27,1.04c0.18,0.31,0.44,0.55,0.76,0.72
			c0.32,0.17,0.69,0.26,1.1,0.26C749.36,138.6,749.73,138.51,750.05,138.34z"/>
		<path class="st0" d="M754.33,132.25c-0.14-0.14-0.22-0.31-0.22-0.51s0.07-0.38,0.22-0.52c0.14-0.14,0.32-0.22,0.54-0.22
			s0.4,0.07,0.54,0.2c0.14,0.14,0.22,0.31,0.22,0.51c0,0.21-0.07,0.39-0.22,0.53c-0.14,0.14-0.32,0.22-0.54,0.22
			S754.47,132.39,754.33,132.25z M754.31,133.65h1.12v6.18h-1.12V133.65z"/>
		<path class="st0" d="M762.74,134.27c0.46,0.46,0.69,1.12,0.69,2v3.56h-1.12v-3.43c0-0.6-0.14-1.05-0.43-1.35
			c-0.29-0.3-0.7-0.45-1.24-0.45c-0.61,0-1.08,0.18-1.43,0.53c-0.35,0.35-0.53,0.86-0.53,1.52v3.18h-1.12v-6.18h1.07v0.93
			c0.22-0.32,0.53-0.56,0.92-0.74s0.82-0.26,1.31-0.26C761.65,133.59,762.28,133.82,762.74,134.27z"/>
		<path class="st0" d="M771.11,137.11h-5.02c0.07,0.54,0.31,0.98,0.72,1.31s0.92,0.5,1.52,0.5c0.74,0,1.33-0.25,1.78-0.75l0.62,0.72
			c-0.28,0.33-0.63,0.58-1.04,0.75c-0.42,0.17-0.88,0.26-1.39,0.26c-0.65,0-1.23-0.13-1.74-0.4c-0.51-0.27-0.9-0.64-1.17-1.13
			c-0.28-0.48-0.41-1.03-0.41-1.63c0-0.6,0.13-1.14,0.4-1.62c0.27-0.48,0.64-0.86,1.11-1.12c0.47-0.27,1-0.4,1.59-0.4
			s1.12,0.13,1.58,0.4c0.46,0.27,0.82,0.64,1.08,1.12c0.26,0.48,0.39,1.03,0.39,1.66C771.13,136.86,771.12,136.97,771.11,137.11z
			 M766.73,135.03c-0.36,0.33-0.57,0.75-0.64,1.28h3.97c-0.06-0.52-0.27-0.95-0.64-1.28c-0.36-0.33-0.81-0.5-1.35-0.5
			C767.54,134.54,767.09,134.7,766.73,135.03z"/>
		<path class="st0" d="M776.16,139.47c-0.16,0.14-0.37,0.25-0.61,0.32c-0.24,0.07-0.49,0.11-0.75,0.11c-0.62,0-1.1-0.17-1.45-0.5
			c-0.34-0.33-0.51-0.81-0.51-1.43v-3.39h-1.05v-0.92h1.05v-1.35h1.12v1.35h1.77v0.92h-1.77v3.35c0,0.33,0.08,0.59,0.25,0.77
			s0.41,0.27,0.72,0.27c0.34,0,0.63-0.1,0.88-0.29L776.16,139.47z"/>
	</g>
	<g>
		<path class="st0" d="M253.34,635.74c0.47,0.47,0.71,1.07,0.71,1.79c0,0.53-0.13,1-0.39,1.42c-0.26,0.42-0.65,0.76-1.17,1.01
			c-0.52,0.25-1.16,0.37-1.91,0.37c-0.66,0-1.29-0.1-1.89-0.29c-0.6-0.2-1.1-0.47-1.48-0.82l0.6-1.04c0.32,0.3,0.72,0.54,1.21,0.71
			c0.49,0.18,1.01,0.27,1.56,0.27c0.68,0,1.21-0.14,1.59-0.43c0.38-0.29,0.57-0.69,0.57-1.19c0-0.51-0.19-0.9-0.56-1.18
			c-0.38-0.28-0.94-0.42-1.71-0.42h-0.74v-0.92l2.31-2.83h-4.42v-1.14h6.06v0.89l-2.4,2.96C252.18,635,252.87,635.28,253.34,635.74z
			"/>
		<path class="st0" d="M260.85,635c0.48,0.23,0.85,0.55,1.12,0.98c0.27,0.42,0.41,0.91,0.41,1.46c0,0.58-0.14,1.08-0.43,1.52
			s-0.67,0.78-1.17,1.02s-1.05,0.36-1.66,0.36c-1.23,0-2.18-0.4-2.85-1.19c-0.67-0.8-1-1.92-1-3.39c0-1.02,0.18-1.9,0.54-2.62
			c0.36-0.72,0.87-1.27,1.52-1.64c0.65-0.37,1.41-0.56,2.28-0.56c0.45,0,0.87,0.05,1.26,0.14c0.39,0.09,0.73,0.22,1.02,0.4
			l-0.5,1.02c-0.44-0.29-1.02-0.43-1.76-0.43c-0.95,0-1.7,0.29-2.24,0.89c-0.54,0.59-0.81,1.45-0.81,2.58c0,0.14,0,0.25,0.01,0.33
			c0.26-0.39,0.62-0.69,1.08-0.9c0.46-0.21,0.98-0.31,1.56-0.31C259.83,634.66,260.37,634.77,260.85,635z M260.54,638.79
			c0.38-0.32,0.56-0.76,0.56-1.3s-0.19-0.97-0.57-1.29c-0.38-0.32-0.89-0.48-1.53-0.48c-0.41,0-0.78,0.08-1.1,0.24
			s-0.57,0.37-0.75,0.64c-0.18,0.27-0.27,0.57-0.27,0.91c0,0.32,0.08,0.62,0.26,0.89c0.17,0.27,0.42,0.48,0.75,0.64
			c0.33,0.16,0.72,0.24,1.17,0.24C259.68,639.28,260.17,639.12,260.54,638.79z"/>
		<path class="st0" d="M268.95,635c0.48,0.23,0.85,0.55,1.12,0.98c0.27,0.42,0.41,0.91,0.41,1.46c0,0.58-0.14,1.08-0.43,1.52
			s-0.67,0.78-1.17,1.02s-1.05,0.36-1.66,0.36c-1.23,0-2.18-0.4-2.85-1.19s-1-1.92-1-3.39c0-1.02,0.18-1.9,0.54-2.62
			c0.36-0.72,0.87-1.27,1.52-1.64c0.65-0.37,1.41-0.56,2.28-0.56c0.45,0,0.87,0.05,1.26,0.14c0.39,0.09,0.73,0.22,1.02,0.4
			l-0.5,1.02c-0.44-0.29-1.02-0.43-1.76-0.43c-0.95,0-1.7,0.29-2.24,0.89c-0.54,0.59-0.81,1.45-0.81,2.58c0,0.14,0,0.25,0.01,0.33
			c0.26-0.39,0.62-0.69,1.08-0.9c0.46-0.21,0.98-0.31,1.56-0.31C267.93,634.66,268.47,634.77,268.95,635z M268.64,638.79
			c0.38-0.32,0.56-0.76,0.56-1.3s-0.19-0.97-0.57-1.29c-0.38-0.32-0.89-0.48-1.53-0.48c-0.41,0-0.78,0.08-1.1,0.24
			s-0.57,0.37-0.75,0.64c-0.18,0.27-0.27,0.57-0.27,0.91c0,0.32,0.08,0.62,0.26,0.89c0.17,0.27,0.42,0.48,0.75,0.64
			c0.33,0.16,0.72,0.24,1.17,0.24C267.77,639.28,268.26,639.12,268.64,638.79z"/>
	</g>
	<g>
		<path class="st0" d="M497.6,261.19c-2.52,0.11-3.01,0.49-3.01,3.19v18.42c0,2.7,0.49,3.08,3.01,3.19v0.74
			c-1.03-0.07-2.81-0.11-4.75-0.11c-1.7,0-3.55,0.04-4.71,0.11v-0.74c2.52-0.11,3.01-0.49,3.01-3.19v-8.92h-12.07v8.92
			c0,2.7,0.49,3.08,3.01,3.19v0.74c-1.14-0.07-3.01-0.11-4.71-0.11c-1.92,0-3.72,0.04-4.75,0.11v-0.74
			c2.52-0.11,3.01-0.49,3.01-3.19v-18.42c0-2.7-0.49-3.08-3.01-3.19v-0.74c1.03,0.07,2.83,0.11,4.75,0.11c1.7,0,3.57-0.04,4.71-0.11
			v0.74c-2.52,0.11-3.01,0.49-3.01,3.19v8.76h12.07v-8.76c0-2.7-0.49-3.08-3.01-3.19v-0.74c1.16,0.07,3.01,0.11,4.71,0.11
			c1.94,0,3.72-0.04,4.75-0.11V261.19z"/>
		<path class="st0" d="M516.68,282.73c0,2.23,0.67,3.26,2.83,3.26v0.78c-0.78-0.07-1.56-0.11-2.3-0.11c-1.45,0-2.79,0.14-3.86,0.53
			v-4.39c-1.27,3.23-3.72,4.46-6.09,4.46c-1.74,0-3.01-0.53-3.86-1.41c-0.92-1-1.23-2.52-1.23-4.86v-9.32
			c0-2.23-0.65-3.28-2.81-3.28v-0.78c0.78,0.07,1.56,0.11,2.3,0.11c1.45,0,2.77-0.15,3.86-0.51v14.59c0,2.3,0.14,4.26,2.81,4.26
			c2.9,0,5.02-2.94,5.02-6.73v-7.67c0-2.23-0.67-3.28-2.83-3.28v-0.78c0.78,0.07,1.56,0.11,2.3,0.11c1.45,0,2.79-0.15,3.86-0.51
			V282.73z"/>
		<path class="st0" d="M537.51,282.27c-0.82,2.48-3.26,4.98-6.94,4.98c-5.38,0-8.54-3.93-8.54-9.62c0-6.53,3.3-10.53,8.39-10.53
			c4.35,0,6.94,2.56,6.94,8.16h-11.6c-0.09,0.71-0.13,1.56-0.13,2.38c0,5.09,2.83,8.07,5.67,8.07c2.23,0,4.17-0.94,5.46-3.72
			L537.51,282.27z M525.71,274.55h8.08c0.13-3.62-1.03-6.74-3.52-6.74C528.06,267.81,526.11,269.87,525.71,274.55z"/>
		<path class="st0" d="M555.11,270.02c0,1.27-0.82,2.34-2.12,2.34c-1.03,0-1.98-0.69-1.98-1.92c0-0.92,0.6-1.59,1.27-2.01
			c-0.18-0.25-0.45-0.36-0.78-0.36c-3.12,0-5.17,4.22-5.17,6.98v7.87c0,2.41,1.49,3.05,3.93,3.05v0.78
			c-1.14-0.04-3.41-0.14-5.71-0.14c-1.7,0-3.53,0.11-4.39,0.14v-0.78c2.05,0,2.83-0.6,2.83-2.67v-11.62c0-2.23-0.67-3.28-2.83-3.28
			v-0.78c0.78,0.07,1.56,0.11,2.3,0.11c1.45,0,2.79-0.15,3.86-0.51v4.64c0.78-2.16,2.79-4.75,5.38-4.75
			C553.74,267.1,555.11,268.42,555.11,270.02z"/>
		<path class="st0" d="M568.17,267.64v0.74h-5.49v14.38c0,2.34,0.89,3.15,2.37,3.15c1.49,0,2.57-1.07,3.35-3.97l0.72,0.18
			c-0.51,2.9-1.81,5.13-4.82,5.13c-1.7,0-2.7-0.42-3.52-1.23c-1.09-1.11-1.45-2.56-1.45-5.2v-12.44h-3.57v-0.74h3.57v-5.67
			c1.21-0.04,2.41-0.18,3.34-0.53v6.2H568.17z"/>
		<path class="st0" d="M587.37,277.2c0,7.12-3.72,10.06-8.43,10.06c-4.71,0-8.43-2.94-8.43-10.06c0-7.14,3.72-10.1,8.43-10.1
			C583.65,267.1,587.37,270.05,587.37,277.2z M574.12,277.2c0,6.63,2.01,9.32,4.82,9.32c2.83,0,4.82-2.68,4.82-9.32
			c0-6.65-1.99-9.35-4.82-9.35C576.13,267.84,574.12,270.54,574.12,277.2z"/>
		<path class="st0" d="M612.24,272.85c5.87,0.78,7.58,3.68,7.58,6.69c0,4.22-3.35,7.2-8.92,7.2c-1.11,0-3.33-0.11-6.38-0.11
			c-1.74,0-3.57,0.04-4.6,0.11v-0.74c2.52-0.11,3.01-0.49,3.01-3.19v-18.42c0-2.7-0.49-3.08-3.01-3.19v-0.74
			c1.03,0.07,2.9,0.11,4.53,0.11c2.34,0,4.71-0.07,5.6-0.07c5.2,0,7.83,2.41,7.83,5.84c0,2.63-1.49,5.18-5.64,6.45V272.85z
			 M606.37,264.38v8.39h2.5c4.37,0,5.46-2.83,5.46-6.05c0-3.64-1.49-5.53-5.2-5.53C606.86,261.19,606.37,261.82,606.37,264.38z
			 M616.1,279.37c0-3.77-1.9-5.96-6.62-5.96h-3.12v9.39c0,2.59,0.49,3.08,2.79,3.08C614.02,285.88,616.1,283.54,616.1,279.37z"/>
		<path class="st0" d="M640.09,277.2c0,7.12-3.72,10.06-8.43,10.06c-4.71,0-8.43-2.94-8.43-10.06c0-7.14,3.72-10.1,8.43-10.1
			C636.37,267.1,640.09,270.05,640.09,277.2z M626.84,277.2c0,6.63,2.01,9.32,4.82,9.32c2.83,0,4.82-2.68,4.82-9.32
			c0-6.65-1.99-9.35-4.82-9.35C628.85,267.84,626.84,270.54,626.84,277.2z"/>
		<path class="st0" d="M659.32,268.5c0.92,1.02,1.29,2.34,1.29,4.88v9.92c0,2.07,0.78,2.67,2.83,2.67v0.78
			c-0.85-0.04-2.83-0.14-4.46-0.14s-3.37,0.11-4.15,0.14v-0.78c1.78,0,2.45-0.6,2.45-2.67v-10.73c0-2.3-0.33-4.28-3.01-4.28
			c-3.12,0-5.2,2.97-5.2,6.76v8.25c0,2.07,0.67,2.67,2.47,2.67v0.78c-0.78-0.04-2.54-0.14-4.17-0.14c-1.63,0-3.61,0.11-4.46,0.14
			v-0.78c2.05,0,2.83-0.6,2.83-2.67v-11.62c0-2.23-0.67-3.28-2.83-3.28v-0.78c0.78,0.07,1.56,0.11,2.3,0.11
			c1.45,0,2.79-0.15,3.86-0.51v4.37c1.31-3.34,3.79-4.48,6.33-4.48C657.28,267.1,658.47,267.61,659.32,268.5z"/>
		<path class="st0" d="M681.19,282.27c-0.82,2.48-3.26,4.98-6.94,4.98c-5.38,0-8.54-3.93-8.54-9.62c0-6.53,3.3-10.53,8.39-10.53
			c4.35,0,6.94,2.56,6.94,8.16h-11.6c-0.09,0.71-0.13,1.56-0.13,2.38c0,5.09,2.83,8.07,5.67,8.07c2.23,0,4.17-0.94,5.46-3.72
			L681.19,282.27z M669.39,274.55h8.08c0.13-3.62-1.03-6.74-3.52-6.74C671.75,267.81,669.79,269.87,669.39,274.55z"/>
		<path class="st0" d="M695.33,267.64v0.74h-5.49v14.38c0,2.34,0.89,3.15,2.37,3.15c1.49,0,2.57-1.07,3.35-3.97l0.72,0.18
			c-0.51,2.9-1.81,5.13-4.82,5.13c-1.7,0-2.7-0.42-3.52-1.23c-1.09-1.11-1.45-2.56-1.45-5.2v-12.44h-3.57v-0.74h3.57v-5.67
			c1.21-0.04,2.41-0.18,3.34-0.53v6.2H695.33z"/>
	</g>
	<g>
		<path class="st0" d="M275.49,699.17h-76.47v-51.93h76.47V699.17z M200.48,697.71h73.55V648.7h-73.55V697.71z"/>
	</g>
	<g>
		<path class="st0" d="M275.49,646.17h-76.47v-20.45h76.47V646.17z M200.48,644.71h73.55v-17.53h-73.55V644.71z"/>
	</g>
	<g>
		<path class="st0" d="M222.13,661.04h-4.34l-0.9,2.04h-1.2l3.7-8.16h1.15l3.71,8.16h-1.22L222.13,661.04z M221.73,660.1l-1.76-4
			l-1.76,4H221.73z"/>
		<path class="st0" d="M225.31,654.42h1.12v8.65h-1.12V654.42z"/>
		<path class="st0" d="M234.47,656.89v5.34c0,1.08-0.27,1.88-0.8,2.4c-0.54,0.52-1.34,0.78-2.4,0.78c-0.58,0-1.14-0.08-1.67-0.24
			c-0.53-0.16-0.96-0.39-1.28-0.68l0.54-0.86c0.29,0.25,0.64,0.45,1.07,0.59c0.42,0.14,0.86,0.22,1.31,0.22
			c0.72,0,1.26-0.17,1.6-0.51c0.35-0.34,0.52-0.86,0.52-1.56v-0.49c-0.26,0.32-0.59,0.56-0.97,0.72c-0.38,0.16-0.8,0.24-1.25,0.24
			c-0.59,0-1.12-0.13-1.6-0.38s-0.85-0.61-1.12-1.06c-0.27-0.45-0.41-0.97-0.41-1.56s0.14-1.1,0.41-1.56
			c0.27-0.46,0.65-0.81,1.12-1.06s1.01-0.37,1.6-0.37c0.47,0,0.9,0.08,1.3,0.26s0.73,0.42,0.99,0.76v-0.96H234.47z M232.34,661.58
			c0.32-0.17,0.58-0.41,0.76-0.72c0.18-0.31,0.27-0.66,0.27-1.04c0-0.6-0.2-1.08-0.59-1.45s-0.91-0.55-1.53-0.55
			c-0.63,0-1.14,0.18-1.54,0.55s-0.59,0.85-0.59,1.45c0,0.39,0.09,0.74,0.27,1.04c0.18,0.31,0.44,0.55,0.76,0.72
			c0.32,0.17,0.69,0.26,1.1,0.26C231.66,661.84,232.02,661.76,232.34,661.58z"/>
		<path class="st0" d="M236.62,655.5c-0.14-0.14-0.22-0.31-0.22-0.51s0.07-0.38,0.22-0.52c0.14-0.14,0.32-0.22,0.54-0.22
			s0.4,0.07,0.54,0.2c0.14,0.14,0.22,0.31,0.22,0.51c0,0.21-0.07,0.39-0.22,0.53c-0.14,0.14-0.32,0.22-0.54,0.22
			S236.77,655.64,236.62,655.5z M236.61,656.89h1.12v6.18h-1.12V656.89z"/>
		<path class="st0" d="M245.03,657.52c0.46,0.46,0.69,1.12,0.69,2v3.56h-1.12v-3.43c0-0.6-0.14-1.05-0.43-1.35
			c-0.29-0.3-0.7-0.45-1.24-0.45c-0.61,0-1.08,0.18-1.43,0.53c-0.35,0.35-0.53,0.86-0.53,1.52v3.18h-1.12v-6.18h1.07v0.93
			c0.22-0.32,0.53-0.56,0.92-0.74s0.82-0.26,1.31-0.26C243.95,656.84,244.57,657.06,245.03,657.52z"/>
		<path class="st0" d="M253.4,660.36h-5.02c0.07,0.54,0.31,0.98,0.72,1.31s0.92,0.5,1.52,0.5c0.74,0,1.33-0.25,1.78-0.75l0.62,0.72
			c-0.28,0.33-0.63,0.58-1.04,0.75c-0.42,0.17-0.88,0.26-1.39,0.26c-0.65,0-1.23-0.13-1.74-0.4c-0.51-0.27-0.9-0.64-1.17-1.13
			c-0.28-0.48-0.41-1.03-0.41-1.63c0-0.6,0.13-1.14,0.4-1.62c0.27-0.48,0.64-0.86,1.11-1.12c0.47-0.27,1-0.4,1.59-0.4
			s1.12,0.13,1.58,0.4c0.46,0.27,0.82,0.64,1.08,1.12c0.26,0.48,0.39,1.03,0.39,1.66C253.42,660.11,253.42,660.22,253.4,660.36z
			 M249.02,658.27c-0.36,0.33-0.57,0.75-0.64,1.28h3.97c-0.06-0.52-0.27-0.95-0.64-1.28c-0.36-0.33-0.81-0.5-1.35-0.5
			C249.83,657.78,249.38,657.94,249.02,658.27z"/>
		<path class="st0" d="M258.45,662.72c-0.16,0.14-0.37,0.25-0.61,0.32c-0.24,0.07-0.49,0.11-0.75,0.11c-0.62,0-1.1-0.17-1.45-0.5
			c-0.34-0.33-0.51-0.81-0.51-1.43v-3.39h-1.05v-0.92h1.05v-1.35h1.12v1.35h1.77v0.92h-1.77v3.35c0,0.33,0.08,0.59,0.25,0.77
			s0.41,0.27,0.72,0.27c0.34,0,0.63-0.1,0.88-0.29L258.45,662.72z"/>
		<path class="st0" d="M215.87,675.03h-4.34l-0.9,2.04h-1.2l3.7-8.16h1.15l3.71,8.16h-1.22L215.87,675.03z M215.46,674.1l-1.76-4
			l-1.76,4H215.46z"/>
		<path class="st0" d="M219.04,668.42h1.12v8.65h-1.12V668.42z"/>
		<path class="st0" d="M228.2,670.89v5.34c0,1.08-0.27,1.88-0.8,2.4c-0.54,0.52-1.34,0.78-2.4,0.78c-0.58,0-1.14-0.08-1.67-0.24
			c-0.53-0.16-0.96-0.39-1.28-0.68l0.54-0.86c0.29,0.25,0.64,0.45,1.07,0.59c0.42,0.14,0.86,0.22,1.31,0.22
			c0.72,0,1.26-0.17,1.6-0.51c0.35-0.34,0.52-0.86,0.52-1.56v-0.49c-0.26,0.32-0.59,0.56-0.97,0.72c-0.38,0.16-0.8,0.24-1.25,0.24
			c-0.59,0-1.12-0.13-1.6-0.38s-0.85-0.61-1.12-1.06c-0.27-0.45-0.41-0.97-0.41-1.56s0.14-1.1,0.41-1.56
			c0.27-0.46,0.65-0.81,1.12-1.06s1.01-0.37,1.6-0.37c0.47,0,0.9,0.08,1.3,0.26s0.73,0.42,0.99,0.76v-0.96H228.2z M226.08,675.58
			c0.32-0.17,0.58-0.41,0.76-0.72c0.18-0.31,0.27-0.66,0.27-1.04c0-0.6-0.2-1.08-0.59-1.45s-0.91-0.55-1.53-0.55
			c-0.63,0-1.14,0.18-1.54,0.55s-0.59,0.85-0.59,1.45c0,0.39,0.09,0.74,0.27,1.04c0.18,0.31,0.44,0.55,0.76,0.72
			c0.32,0.17,0.69,0.26,1.1,0.26C225.39,675.84,225.75,675.75,226.08,675.58z"/>
		<path class="st0" d="M235.9,674.35h-5.02c0.07,0.54,0.31,0.98,0.72,1.31s0.92,0.5,1.52,0.5c0.74,0,1.33-0.25,1.78-0.75l0.62,0.72
			c-0.28,0.33-0.63,0.58-1.04,0.75c-0.42,0.17-0.88,0.26-1.39,0.26c-0.65,0-1.23-0.13-1.74-0.4c-0.51-0.27-0.9-0.64-1.17-1.13
			c-0.28-0.48-0.41-1.03-0.41-1.63c0-0.6,0.13-1.14,0.4-1.62c0.27-0.48,0.64-0.86,1.11-1.12c0.47-0.27,1-0.4,1.59-0.4
			s1.12,0.13,1.58,0.4c0.46,0.27,0.82,0.64,1.08,1.12c0.26,0.48,0.39,1.03,0.39,1.66C235.92,674.1,235.92,674.22,235.9,674.35z
			 M231.52,672.27c-0.36,0.33-0.57,0.75-0.64,1.28h3.97c-0.06-0.52-0.27-0.95-0.64-1.28c-0.36-0.33-0.81-0.5-1.35-0.5
			C232.33,671.78,231.88,671.94,231.52,672.27z"/>
		<path class="st0" d="M247.06,671.51c0.46,0.45,0.68,1.12,0.68,2.01v3.56h-1.12v-3.43c0-0.6-0.14-1.05-0.41-1.35
			c-0.28-0.3-0.67-0.45-1.18-0.45c-0.57,0-1.02,0.18-1.35,0.53c-0.33,0.35-0.5,0.86-0.5,1.52v3.18h-1.12v-3.43
			c0-0.6-0.14-1.05-0.41-1.35c-0.28-0.3-0.67-0.45-1.18-0.45c-0.57,0-1.02,0.18-1.35,0.53c-0.33,0.35-0.5,0.86-0.5,1.52v3.18h-1.12
			v-6.18h1.07v0.92c0.22-0.32,0.52-0.56,0.89-0.73c0.37-0.17,0.78-0.25,1.25-0.25c0.48,0,0.91,0.1,1.28,0.29s0.66,0.48,0.86,0.85
			c0.23-0.36,0.56-0.64,0.97-0.84s0.88-0.3,1.41-0.3C245.99,670.83,246.6,671.06,247.06,671.51z"/>
		<path class="st0" d="M255.4,674.35h-5.02c0.07,0.54,0.31,0.98,0.72,1.31s0.92,0.5,1.52,0.5c0.74,0,1.33-0.25,1.78-0.75l0.62,0.72
			c-0.28,0.33-0.63,0.58-1.04,0.75c-0.42,0.17-0.88,0.26-1.39,0.26c-0.65,0-1.23-0.13-1.74-0.4c-0.51-0.27-0.9-0.64-1.17-1.13
			c-0.28-0.48-0.41-1.03-0.41-1.63c0-0.6,0.13-1.14,0.4-1.62c0.27-0.48,0.64-0.86,1.11-1.12c0.47-0.27,1-0.4,1.59-0.4
			s1.12,0.13,1.58,0.4c0.46,0.27,0.82,0.64,1.08,1.12c0.26,0.48,0.39,1.03,0.39,1.66C255.43,674.1,255.42,674.22,255.4,674.35z
			 M251.02,672.27c-0.36,0.33-0.57,0.75-0.64,1.28h3.97c-0.06-0.52-0.27-0.95-0.64-1.28c-0.36-0.33-0.81-0.5-1.35-0.5
			C251.83,671.78,251.38,671.94,251.02,672.27z"/>
		<path class="st0" d="M257.29,676.94c-0.47-0.14-0.83-0.31-1.1-0.52l0.47-0.89c0.27,0.19,0.6,0.35,0.99,0.47
			c0.39,0.12,0.78,0.17,1.18,0.17c0.98,0,1.47-0.28,1.47-0.84c0-0.19-0.07-0.33-0.2-0.44c-0.13-0.11-0.3-0.19-0.5-0.24
			s-0.48-0.11-0.85-0.17c-0.5-0.08-0.9-0.17-1.22-0.27c-0.31-0.1-0.58-0.27-0.81-0.51c-0.23-0.24-0.34-0.58-0.34-1.01
			c0-0.56,0.23-1.01,0.7-1.35c0.47-0.34,1.09-0.51,1.88-0.51c0.41,0,0.82,0.05,1.24,0.15c0.41,0.1,0.75,0.24,1.01,0.41l-0.48,0.89
			c-0.5-0.33-1.1-0.49-1.78-0.49c-0.47,0-0.84,0.08-1.08,0.23c-0.25,0.16-0.37,0.36-0.37,0.62c0,0.2,0.07,0.36,0.21,0.48
			c0.14,0.12,0.31,0.2,0.52,0.26s0.5,0.12,0.87,0.19c0.5,0.09,0.9,0.18,1.21,0.27c0.31,0.1,0.57,0.26,0.79,0.5
			c0.22,0.23,0.33,0.56,0.33,0.98c0,0.56-0.24,1-0.72,1.33c-0.48,0.33-1.13,0.5-1.95,0.5C258.24,677.14,257.76,677.07,257.29,676.94
			z"/>
		<path class="st0" d="M262.84,669.49c-0.14-0.14-0.22-0.31-0.22-0.51s0.07-0.38,0.22-0.52c0.14-0.14,0.32-0.22,0.54-0.22
			s0.4,0.07,0.54,0.2c0.14,0.14,0.22,0.31,0.22,0.51c0,0.21-0.07,0.39-0.22,0.53c-0.14,0.14-0.32,0.22-0.54,0.22
			S262.98,669.63,262.84,669.49z M262.82,670.89h1.12v6.18h-1.12V670.89z"/>
	</g>
	<g>
		<path class="st0" d="M16.59,586.29h-6.51l-1.35,3.06h-1.8l5.55-12.25h1.73l5.56,12.25h-1.84L16.59,586.29z M15.98,584.89l-2.64-6
			l-2.64,6H15.98z"/>
		<path class="st0" d="M28.64,577.1v1.19l-4.95,11.06h-1.85l4.85-10.72h-5.6v2.19h-1.68v-3.71H28.64z"/>
		<path class="st0" d="M8.79,598.1h5.16c1.29,0,2.44,0.26,3.45,0.77c1,0.51,1.78,1.23,2.34,2.16c0.55,0.93,0.83,1.99,0.83,3.19
			s-0.28,2.27-0.83,3.19c-0.55,0.93-1.33,1.65-2.34,2.16c-1,0.51-2.15,0.77-3.45,0.77H8.79V598.1z M13.84,608.82
			c0.99,0,1.86-0.19,2.62-0.58s1.33-0.92,1.74-1.62c0.41-0.69,0.61-1.5,0.61-2.41s-0.2-1.71-0.61-2.41
			c-0.41-0.69-0.99-1.23-1.74-1.62s-1.62-0.58-2.62-0.58h-3.31v9.2H13.84z"/>
		<path class="st0" d="M23.02,598.97c-0.22-0.21-0.32-0.47-0.32-0.77c0-0.3,0.11-0.56,0.32-0.78s0.49-0.32,0.81-0.32
			s0.6,0.1,0.81,0.31s0.32,0.46,0.32,0.76c0,0.31-0.11,0.58-0.32,0.8s-0.49,0.32-0.81,0.32S23.23,599.18,23.02,598.97z
			 M22.99,601.07h1.68v9.27h-1.68V601.07z"/>
		<path class="st0" d="M30.78,601.4c0.57-0.28,1.27-0.42,2.08-0.42v1.63c-0.09-0.01-0.22-0.02-0.39-0.02
			c-0.91,0-1.62,0.27-2.14,0.81s-0.78,1.32-0.78,2.32v4.62h-1.68v-9.27h1.61v1.56C29.77,602.09,30.2,601.68,30.78,601.4z"/>
		<path class="st0" d="M43.18,606.27h-7.52c0.1,0.82,0.46,1.47,1.08,1.97c0.61,0.5,1.37,0.74,2.28,0.74c1.11,0,2-0.37,2.68-1.12
			l0.93,1.08c-0.42,0.49-0.94,0.86-1.57,1.12c-0.62,0.26-1.32,0.38-2.09,0.38c-0.98,0-1.85-0.2-2.61-0.6
			c-0.76-0.4-1.34-0.96-1.76-1.69c-0.41-0.72-0.62-1.54-0.62-2.45c0-0.9,0.2-1.71,0.6-2.43c0.4-0.72,0.96-1.29,1.66-1.69
			c0.71-0.4,1.5-0.6,2.39-0.6s1.68,0.2,2.37,0.6s1.24,0.96,1.63,1.69c0.39,0.72,0.59,1.55,0.59,2.48
			C43.21,605.89,43.2,606.06,43.18,606.27z M36.61,603.14c-0.54,0.49-0.86,1.13-0.95,1.92h5.95c-0.09-0.78-0.41-1.42-0.95-1.92
			c-0.54-0.5-1.22-0.74-2.02-0.74S37.15,602.65,36.61,603.14z"/>
		<path class="st0" d="M47.06,609.84c-0.74-0.41-1.32-0.97-1.74-1.69c-0.42-0.72-0.63-1.53-0.63-2.44c0-0.91,0.21-1.72,0.63-2.44
			c0.42-0.72,1-1.28,1.74-1.68c0.74-0.4,1.58-0.6,2.53-0.6c0.84,0,1.59,0.17,2.25,0.51c0.66,0.34,1.17,0.83,1.53,1.47l-1.28,0.82
			c-0.29-0.44-0.65-0.78-1.08-1c-0.43-0.22-0.91-0.33-1.43-0.33c-0.61,0-1.15,0.13-1.64,0.4s-0.86,0.65-1.14,1.15
			c-0.27,0.5-0.41,1.06-0.41,1.71c0,0.65,0.14,1.23,0.41,1.72c0.27,0.5,0.65,0.88,1.14,1.15s1.03,0.4,1.64,0.4
			c0.52,0,1-0.11,1.43-0.33c0.43-0.22,0.79-0.55,1.08-1l1.28,0.8c-0.36,0.64-0.87,1.13-1.53,1.48c-0.66,0.34-1.41,0.52-2.25,0.52
			C48.64,610.45,47.8,610.24,47.06,609.84z"/>
		<path class="st0" d="M56.9,609.84c-0.74-0.41-1.32-0.97-1.74-1.69c-0.42-0.72-0.63-1.53-0.63-2.44c0-0.91,0.21-1.72,0.63-2.44
			c0.42-0.72,1-1.28,1.74-1.68c0.74-0.4,1.58-0.6,2.53-0.6c0.84,0,1.59,0.17,2.25,0.51c0.66,0.34,1.17,0.83,1.53,1.47l-1.28,0.82
			c-0.29-0.44-0.65-0.78-1.08-1c-0.43-0.22-0.91-0.33-1.43-0.33c-0.61,0-1.15,0.13-1.64,0.4s-0.86,0.65-1.14,1.15
			c-0.27,0.5-0.41,1.06-0.41,1.71c0,0.65,0.14,1.23,0.41,1.72c0.27,0.5,0.65,0.88,1.14,1.15s1.03,0.4,1.64,0.4
			c0.52,0,1-0.11,1.43-0.33c0.43-0.22,0.79-0.55,1.08-1l1.28,0.8c-0.36,0.64-0.87,1.13-1.53,1.48c-0.66,0.34-1.41,0.52-2.25,0.52
			C58.49,610.45,57.64,610.24,56.9,609.84z"/>
		<path class="st0" d="M65.41,598.97c-0.22-0.21-0.32-0.47-0.32-0.77c0-0.3,0.11-0.56,0.32-0.78s0.49-0.32,0.81-0.32
			s0.6,0.1,0.81,0.31s0.32,0.46,0.32,0.76c0,0.31-0.11,0.58-0.32,0.8s-0.49,0.32-0.81,0.32S65.62,599.18,65.41,598.97z
			 M65.38,601.07h1.68v9.27h-1.68V601.07z"/>
		<path class="st0" d="M71.75,609.84c-0.73-0.41-1.31-0.97-1.72-1.69c-0.41-0.72-0.62-1.53-0.62-2.44c0-0.91,0.21-1.72,0.62-2.44
			c0.41-0.72,0.99-1.28,1.72-1.68s1.56-0.6,2.48-0.6c0.92,0,1.75,0.2,2.48,0.6s1.3,0.96,1.71,1.68c0.41,0.72,0.62,1.53,0.62,2.44
			c0,0.91-0.21,1.72-0.62,2.44c-0.41,0.72-0.99,1.28-1.71,1.69c-0.73,0.41-1.55,0.61-2.48,0.61
			C73.31,610.45,72.48,610.24,71.75,609.84z M75.83,608.57c0.47-0.27,0.84-0.66,1.11-1.16c0.27-0.5,0.4-1.06,0.4-1.71
			s-0.13-1.21-0.4-1.71c-0.27-0.5-0.64-0.88-1.11-1.15s-1.01-0.4-1.6-0.4c-0.6,0-1.13,0.13-1.6,0.4c-0.47,0.27-0.85,0.65-1.12,1.15
			c-0.27,0.5-0.41,1.06-0.41,1.71s0.14,1.21,0.41,1.71c0.27,0.5,0.65,0.88,1.12,1.16c0.47,0.27,1.01,0.41,1.6,0.41
			C74.83,608.98,75.36,608.84,75.83,608.57z M75.28,597.45h2.13l-2.94,2.27H72.9L75.28,597.45z"/>
		<path class="st0" d="M89.13,602.01c0.69,0.68,1.04,1.68,1.04,3v5.34h-1.68v-5.14c0-0.9-0.22-1.57-0.65-2.03
			c-0.43-0.46-1.05-0.68-1.85-0.68c-0.91,0-1.63,0.27-2.15,0.8c-0.52,0.53-0.79,1.29-0.79,2.28v4.78h-1.68v-9.27h1.61v1.4
			c0.34-0.48,0.8-0.85,1.37-1.1c0.58-0.26,1.23-0.38,1.97-0.38C87.5,600.98,88.43,601.32,89.13,602.01z"/>
		<path class="st0" d="M19.42,619.09l-5.37,12.25h-1.73l-5.39-12.25h1.89l4.41,10.06l4.44-10.06H19.42z"/>
		<path class="st0" d="M26.36,622.92c0.68,0.63,1.02,1.57,1.02,2.82v5.6h-1.59v-1.22c-0.28,0.43-0.68,0.76-1.2,0.99
			c-0.52,0.23-1.13,0.34-1.85,0.34c-1.04,0-1.87-0.25-2.49-0.75c-0.62-0.5-0.94-1.16-0.94-1.98s0.3-1.47,0.89-1.97
			c0.59-0.5,1.54-0.74,2.83-0.74h2.66v-0.33c0-0.72-0.21-1.28-0.63-1.66s-1.04-0.58-1.85-0.58c-0.55,0-1.08,0.09-1.61,0.27
			c-0.52,0.18-0.97,0.42-1.33,0.73l-0.7-1.26c0.48-0.38,1.05-0.68,1.71-0.88c0.67-0.2,1.37-0.31,2.12-0.31
			C24.7,621.98,25.68,622.29,26.36,622.92z M24.69,629.72c0.47-0.29,0.8-0.69,1.01-1.22v-1.29h-2.59c-1.42,0-2.13,0.48-2.13,1.43
			c0,0.47,0.18,0.83,0.54,1.1c0.36,0.27,0.86,0.4,1.5,0.4C23.67,630.15,24.22,630.01,24.69,629.72z"/>
		<path class="st0" d="M30.5,618.36h1.68v12.98H30.5V618.36z"/>
		<path class="st0" d="M43.72,627.26H36.2c0.1,0.82,0.46,1.47,1.08,1.97c0.61,0.5,1.37,0.74,2.28,0.74c1.11,0,2-0.37,2.68-1.12
			l0.93,1.08c-0.42,0.49-0.94,0.86-1.57,1.12c-0.62,0.26-1.32,0.38-2.09,0.38c-0.98,0-1.85-0.2-2.61-0.6
			c-0.76-0.4-1.34-0.96-1.76-1.69c-0.41-0.72-0.62-1.54-0.62-2.45c0-0.9,0.2-1.71,0.6-2.43c0.4-0.72,0.96-1.29,1.66-1.69
			c0.71-0.4,1.5-0.6,2.39-0.6s1.68,0.2,2.37,0.6s1.24,0.96,1.63,1.69c0.39,0.72,0.59,1.55,0.59,2.48
			C43.76,626.88,43.75,627.05,43.72,627.26z M37.15,624.13c-0.54,0.49-0.86,1.13-0.95,1.92h5.95c-0.09-0.78-0.41-1.42-0.95-1.92
			c-0.54-0.5-1.22-0.74-2.02-0.74S37.7,623.64,37.15,624.13z"/>
		<path class="st0" d="M53.84,623c0.69,0.68,1.04,1.68,1.04,3v5.34H53.2v-5.14c0-0.9-0.22-1.57-0.65-2.03
			c-0.43-0.46-1.05-0.68-1.85-0.68c-0.91,0-1.63,0.27-2.15,0.8c-0.52,0.53-0.79,1.29-0.79,2.28v4.78h-1.68v-9.27h1.61v1.4
			c0.34-0.48,0.8-0.85,1.37-1.1c0.58-0.26,1.23-0.38,1.97-0.38C52.21,621.98,53.15,622.32,53.84,623z"/>
		<path class="st0" d="M59.56,630.83c-0.74-0.41-1.32-0.97-1.74-1.69c-0.42-0.72-0.63-1.53-0.63-2.44c0-0.91,0.21-1.72,0.63-2.44
			c0.42-0.72,1-1.28,1.74-1.68c0.74-0.4,1.58-0.6,2.53-0.6c0.84,0,1.59,0.17,2.25,0.51c0.66,0.34,1.17,0.83,1.53,1.47l-1.28,0.82
			c-0.29-0.44-0.65-0.78-1.08-1c-0.43-0.22-0.91-0.33-1.43-0.33c-0.61,0-1.15,0.13-1.64,0.4s-0.86,0.65-1.14,1.15
			c-0.27,0.5-0.41,1.06-0.41,1.71c0,0.65,0.14,1.23,0.41,1.72c0.27,0.5,0.65,0.88,1.14,1.15s1.03,0.4,1.64,0.4
			c0.52,0,1-0.11,1.43-0.33c0.43-0.22,0.79-0.55,1.08-1l1.28,0.8c-0.36,0.64-0.87,1.13-1.53,1.48c-0.66,0.34-1.41,0.52-2.25,0.52
			C61.15,631.44,60.3,631.24,59.56,630.83z"/>
		<path class="st0" d="M68.07,619.97c-0.22-0.21-0.32-0.47-0.32-0.77c0-0.3,0.11-0.56,0.32-0.78s0.49-0.32,0.81-0.32
			s0.6,0.1,0.81,0.31s0.32,0.46,0.32,0.76c0,0.31-0.11,0.58-0.32,0.8s-0.49,0.32-0.81,0.32S68.28,620.18,68.07,619.97z
			 M68.04,622.06h1.68v9.27h-1.68V622.06z"/>
		<path class="st0" d="M79.24,622.92c0.68,0.63,1.02,1.57,1.02,2.82v5.6h-1.59v-1.22c-0.28,0.43-0.68,0.76-1.2,0.99
			c-0.52,0.23-1.13,0.34-1.85,0.34c-1.04,0-1.87-0.25-2.49-0.75c-0.62-0.5-0.94-1.16-0.94-1.98s0.3-1.47,0.89-1.97
			c0.59-0.5,1.54-0.74,2.83-0.74h2.66v-0.33c0-0.72-0.21-1.28-0.63-1.66s-1.04-0.58-1.85-0.58c-0.55,0-1.08,0.09-1.61,0.27
			c-0.52,0.18-0.97,0.42-1.33,0.73l-0.7-1.26c0.48-0.38,1.05-0.68,1.71-0.88c0.67-0.2,1.37-0.31,2.12-0.31
			C77.58,621.98,78.56,622.29,79.24,622.92z M77.57,629.72c0.47-0.29,0.8-0.69,1.01-1.22v-1.29H76c-1.42,0-2.13,0.48-2.13,1.43
			c0,0.47,0.18,0.83,0.54,1.1c0.36,0.27,0.86,0.4,1.5,0.4C76.55,630.15,77.11,630.01,77.57,629.72z"/>
	</g>
</g>
</svg>
