<?xml version="1.0" encoding="utf-8"?>
<!-- Generator: Adobe Illustrator 24.0.1, SVG Export Plug-In . SVG Version: 6.00 Build 0)  -->
<svg version="1.1" id="Capa_1" xmlns="http://www.w3.org/2000/svg" xmlns:xlink="http://www.w3.org/1999/xlink" x="0px" y="0px"
	 viewBox="0 0 800 705.4" style="enable-background:new 0 0 800 705.4;" xml:space="preserve">
<style type="text/css">
	.st0{fill:none;}
	.st1{fill:#3A4C3E;}
	.st2{font-family:'Montserrat-Medium';}
	.st3{font-size:17.4945px;}
	.st4{opacity:0.2;}
	.st5{font-size:13.1209px;}
	.st6{font-size:11.663px;}
	.st7{font-family:'PlayfairDisplay-Regular';}
	.st8{font-size:37.1304px;}
</style>
<g>
	<rect x="649.81" y="0" class="st0" width="112.76" height="61.54"/>
	<text transform="matrix(1 0 0 1 649.809 14.8709)"><tspan x="0" y="0" class="st1 st2 st3">A7</tspan><tspan x="0" y="20.99" class="st1 st2 st3">Dirección </tspan><tspan x="0" y="41.99" class="st1 st2 st3">Alicante</tspan></text>
	<g class="st4">
		<path class="st1" d="M4.23,657.51l-0.89-8.7c7.01-0.72,14.29-1.41,21.83-2.12c49.41-4.68,110.91-10.51,174.82-31.96
			c74.75-25.09,137.92-66.25,193.12-125.85c61.35-66.23,90.12-126.8,115.5-180.25c22.68-47.76,42.27-89.01,79.5-125.24
			c62.43-60.77,110.27-94.49,133.23-109.19l4.72,7.37c-22.68,14.52-69.98,47.86-131.85,108.09c-36.1,35.14-55.38,75.73-77.7,122.73
			c-25.65,54.01-54.73,115.22-116.98,182.44c-56.22,60.7-120.58,102.63-196.76,128.2C137.9,644.8,75.85,650.68,25.99,655.4
			C18.48,656.11,11.22,656.8,4.23,657.51z"/>
	</g>
	<g>
		<path class="st1" d="M161.03,551.67c-2.24,0-4.36-0.83-6.01-2.36c-1.74-1.61-2.74-3.8-2.83-6.16c-0.09-2.37,0.75-4.63,2.35-6.36
			c1.61-1.74,3.8-2.74,6.16-2.83c2.38-0.12,4.63,0.74,6.36,2.35c1.74,1.61,2.74,3.8,2.83,6.16s-0.75,4.63-2.35,6.36
			c-1.61,1.74-3.8,2.74-6.16,2.83C161.26,551.67,161.15,551.67,161.03,551.67z M161.04,538.32c-0.06,0-0.12,0-0.18,0
			c-1.2,0.05-2.31,0.56-3.12,1.44c-0.82,0.88-1.24,2.02-1.19,3.22c0.05,1.2,0.56,2.31,1.44,3.12c1.82,1.68,4.66,1.57,6.34-0.24
			c0.82-0.88,1.24-2.02,1.19-3.22c-0.05-1.2-0.56-2.31-1.44-3.12C163.25,538.74,162.18,538.32,161.04,538.32z"/>
	</g>
	<g>
		<path class="st1" d="M317.95,267.65c-2.24,0-4.36-0.83-6.02-2.36c-3.58-3.32-3.8-8.94-0.48-12.53c3.32-3.58,8.94-3.8,12.53-0.48
			c1.74,1.61,2.74,3.8,2.83,6.16c0.09,2.37-0.75,4.63-2.35,6.36c-1.61,1.74-3.8,2.74-6.16,2.83
			C318.18,267.65,318.06,267.65,317.95,267.65z M317.96,254.3c-1.21,0-2.41,0.48-3.29,1.44c-1.68,1.82-1.57,4.66,0.24,6.34
			c0.88,0.82,2.01,1.24,3.22,1.19c1.2-0.05,2.31-0.56,3.12-1.44c0.82-0.88,1.24-2.02,1.19-3.22c-0.05-1.2-0.56-2.31-1.44-3.12
			C320.14,254.69,319.05,254.3,317.96,254.3z"/>
	</g>
	<g>
		<path class="st1" d="M402.68,234.46c-2.24,0-4.36-0.83-6.02-2.36c-1.74-1.61-2.74-3.8-2.83-6.16c-0.09-2.37,0.75-4.63,2.35-6.36
			c1.61-1.74,3.8-2.74,6.16-2.83c2.34-0.1,4.62,0.75,6.36,2.35c1.74,1.61,2.74,3.8,2.83,6.16c0.09,2.37-0.75,4.62-2.35,6.36
			c-1.61,1.74-3.8,2.74-6.16,2.83C402.91,234.46,402.8,234.46,402.68,234.46z M402.69,221.11c-0.06,0-0.12,0-0.18,0
			c-1.2,0.05-2.31,0.56-3.12,1.44c-0.82,0.88-1.24,2.02-1.19,3.22c0.05,1.2,0.56,2.31,1.44,3.12c0.88,0.81,2.02,1.23,3.22,1.19
			c1.2-0.05,2.31-0.56,3.12-1.44v0c0.82-0.88,1.24-2.02,1.19-3.22c-0.05-1.2-0.56-2.31-1.44-3.12
			C404.91,221.53,403.83,221.11,402.69,221.11z"/>
	</g>
	<g>
		<path class="st1" d="M424.74,295.59c-2.24,0-4.36-0.83-6.02-2.36c-1.74-1.61-2.74-3.8-2.83-6.16c-0.09-2.37,0.75-4.63,2.35-6.36
			c1.61-1.74,3.8-2.74,6.16-2.83c2.36-0.09,4.62,0.75,6.36,2.35c1.74,1.61,2.74,3.8,2.83,6.16c0.09,2.37-0.75,4.63-2.35,6.36
			c-1.61,1.74-3.8,2.74-6.16,2.83C424.97,295.59,424.86,295.59,424.74,295.59z M424.75,282.24c-0.06,0-0.12,0-0.18,0
			c-1.2,0.05-2.31,0.56-3.12,1.44c-0.82,0.88-1.24,2.02-1.19,3.22c0.05,1.2,0.56,2.31,1.44,3.12c0.88,0.82,2.01,1.25,3.22,1.19
			c1.2-0.05,2.31-0.56,3.12-1.44c0.82-0.88,1.24-2.02,1.19-3.22c-0.05-1.2-0.56-2.31-1.44-3.12
			C426.96,282.66,425.89,282.24,424.75,282.24z"/>
	</g>
	<g>
		<path class="st1" d="M471.05,200.09c-2.24,0-4.36-0.83-6.01-2.36c-1.74-1.61-2.74-3.8-2.83-6.16c-0.09-2.37,0.75-4.62,2.35-6.36
			s3.8-2.74,6.16-2.83c2.36-0.08,4.62,0.75,6.36,2.35c1.74,1.61,2.74,3.8,2.83,6.16c0.09,2.37-0.75,4.62-2.35,6.36
			c-1.61,1.74-3.8,2.74-6.16,2.83C471.29,200.09,471.17,200.09,471.05,200.09z M471.07,186.73c-0.06,0-0.12,0-0.18,0
			c-1.2,0.05-2.31,0.56-3.12,1.44s-1.24,2.02-1.19,3.22c0.05,1.2,0.56,2.31,1.44,3.12c0.88,0.82,2.02,1.24,3.22,1.19
			c1.2-0.05,2.31-0.56,3.12-1.44c0.82-0.88,1.24-2.02,1.19-3.22c-0.05-1.2-0.56-2.31-1.44-3.12
			C473.28,187.16,472.2,186.73,471.07,186.73z"/>
	</g>
	<g>
		
			<rect x="180.09" y="544.05" transform="matrix(0.8872 -0.4614 0.4614 0.8872 -247.9255 149.7391)" class="st1" width="4.37" height="75.73"/>
	</g>
	<g>
		<path class="st1" d="M166.48,539.9l-1.82-3.98c1.33-0.61,133.72-61.1,177.27-83.69c9.09-4.72,30.69-55.57,26.87-63.28
			c-12.88-26.03-47.63-102.44-47.98-103.21l-0.14-0.3l-2.59-20.12l4.34-0.56l2.51,19.46c2.4,5.28,35.34,77.65,47.78,102.78
			c3.64,7.35-5.6,29.95-8.51,36.7c-5.63,13.02-14.31,29.31-20.27,32.4C300.3,478.75,167.82,539.29,166.48,539.9z"/>
	</g>
	<g>
		
			<rect x="321.8" y="240.88" transform="matrix(0.9354 -0.3535 0.3535 0.9354 -62.6711 142.9883)" class="st1" width="76.66" height="4.37"/>
	</g>
	<g>
		
			<rect x="412.08" y="230.14" transform="matrix(0.9334 -0.359 0.359 0.9334 -64.2903 165.7676)" class="st1" width="4.37" height="51.76"/>
	</g>
	<g>
		
			<rect x="464.4" y="128.2" transform="matrix(0.9073 -0.4206 0.4206 0.9073 1.108 265.8074)" class="st1" width="277.69" height="4.37"/>
	</g>
	<g>
		
			<rect x="405.34" y="206.34" transform="matrix(0.891 -0.4541 0.4541 0.891 -47.0433 221.1518)" class="st1" width="63.19" height="4.37"/>
	</g>
	<g>
		<path class="st1" d="M3.79,657.78l-0.89-8.7c7.01-0.72,14.29-1.41,21.82-2.12c49.98-4.73,112.18-10.63,176.82-32.63l2.82,8.28
			c-65.61,22.33-128.38,28.28-178.81,33.06C18.03,656.38,10.77,657.06,3.79,657.78z"/>
	</g>
	<g>
		<path class="st1" d="M725.68,81.84l-5.12-7.09c9.72-7.03,62.08-32.81,64.31-33.91l3.86,7.85
			C770.12,57.85,732.99,76.56,725.68,81.84z"/>
	</g>
	<g>
		<path class="st1" d="M461.97,268.53c0-6.91-5.6-12.52-12.52-12.52s-12.52,5.6-12.52,12.52c0,2.3,0.63,4.46,1.72,6.31h-0.01
			l10.81,17.6l10.84-17.65h-0.01c0.54-0.93,0.97-1.93,1.25-2.99C461.82,270.76,461.97,269.66,461.97,268.53z M449.45,262.28
			c3.46,0,6.26,2.8,6.26,6.26c0,0.57-0.07,1.11-0.22,1.63c-0.72,2.66-3.15,4.63-6.04,4.63c-3.46,0-6.26-2.8-6.26-6.26
			C443.19,265.08,445.99,262.28,449.45,262.28z"/>
	</g>
	<text transform="matrix(1 0 0 1 765.4281 116.994)" class="st1 st2 st5">363</text>
	<g>
		<path class="st1" d="M793.19,175.93h-76.47V124h76.47V175.93z M718.18,174.47h73.55v-49.01h-73.55V174.47z"/>
	</g>
	<g>
		<path class="st1" d="M793.19,122.93h-76.47v-20.45h76.47V122.93z M718.18,121.47h73.55v-17.53h-73.55V121.47z"/>
	</g>
	<rect x="723.66" y="129.92" class="st0" width="62.54" height="33.62"/>
	<text transform="matrix(1 0 0 1 733.431 139.8324)" class="st1 st2 st6">Alginet</text>
	<text transform="matrix(1 0 0 1 247.1332 640.2377)" class="st1 st2 st5">366</text>
	<text transform="matrix(1 0 0 1 471.0648 286.7318)" class="st1 st7 st8">Huerto Bonet</text>
	<g>
		<path class="st1" d="M275.49,699.17h-76.47v-51.93h76.47V699.17z M200.48,697.71h73.55V648.7h-73.55V697.71z"/>
	</g>
	<g>
		<path class="st1" d="M275.49,646.17h-76.47v-20.45h76.47V646.17z M200.48,644.71h73.55v-17.53h-73.55V644.71z"/>
	</g>
	<rect x="205.96" y="653.16" class="st0" width="62.54" height="33.62"/>
	<text transform="matrix(1 0 0 1 215.725 663.0765)"><tspan x="0" y="0" class="st1 st2 st6">Alginet</tspan><tspan x="-6.27" y="14" class="st1 st2 st6">Algemesi</tspan></text>
	<rect x="6.95" y="574.48" class="st0" width="96.67" height="64.44"/>
	<text transform="matrix(1 0 0 1 6.9496 589.35)"><tspan x="0" y="0" class="st1 st2 st3">A7</tspan><tspan x="0" y="20.99" class="st1 st2 st3">Dirección </tspan><tspan x="0" y="41.99" class="st1 st2 st3">Valencia</tspan></text>
</g>
</svg>
